HIERARCHY
ROOT joint_Root
{
	OFFSET 0.0 0.0 0.0
	CHANNELS 6 Xposition Yposition Zposition Zrotation Xrotation Yrotation 
	JOINT Hips
	{
		OFFSET -0.726466 93.3139 -2.00062
		CHANNELS 6 Xposition Yposition Zposition Zrotation Xrotation Yrotation 
		JOINT Spine
		{
			OFFSET 15.7357 0.0 0.0
			CHANNELS 6 Xposition Yposition Zposition Zrotation Xrotation Yrotation 
			JOINT Chest
			{
				OFFSET 8.98455 -0.406207 0.0
				CHANNELS 6 Xposition Yposition Zposition Zrotation Xrotation Yrotation 
				JOINT Neck
				{
					OFFSET 16.3773 0.0 0.0
					CHANNELS 6 Xposition Yposition Zposition Zrotation Xrotation Yrotation 
					JOINT Head
					{
						OFFSET 6.45672 0.0 0.0
						CHANNELS 6 Xposition Yposition Zposition Zrotation Xrotation Yrotation 
						End Site
						{
							OFFSET 0.0 0.0 0.0
						}
					}
				}
				JOINT Shoulder_L
				{
					OFFSET 12.9942 -0.242716 4.98039
					CHANNELS 6 Xposition Yposition Zposition Zrotation Xrotation Yrotation 
					JOINT UpperArm_L
					{
						OFFSET 5.34809 0.0 0.0
						CHANNELS 6 Xposition Yposition Zposition Zrotation Xrotation Yrotation 
						JOINT LowerArm_L
						{
							OFFSET 24.3286 1.87007e-05 0.0
							CHANNELS 6 Xposition Yposition Zposition Zrotation Xrotation Yrotation 
							JOINT Hand_L
							{
								OFFSET 22.2916 0.0 0.0
								CHANNELS 6 Xposition Yposition Zposition Zrotation Xrotation Yrotation 
								End Site
								{
									OFFSET 0.0 0.0 0.0
								}
							}
						}
					}
				}
				JOINT Shoulder_R
				{
					OFFSET 12.9945 -0.242716 -4.98039
					CHANNELS 6 Xposition Yposition Zposition Zrotation Xrotation Yrotation 
					JOINT UpperArm_R
					{
						OFFSET -5.34813 0.0 0.0
						CHANNELS 6 Xposition Yposition Zposition Zrotation Xrotation Yrotation 
						JOINT LowerArm_R
						{
							OFFSET -24.3289 0.000322201 0.0
							CHANNELS 6 Xposition Yposition Zposition Zrotation Xrotation Yrotation 
							JOINT Hand_R
							{
								OFFSET -22.2915 -0.000108084 0.0
								CHANNELS 6 Xposition Yposition Zposition Zrotation Xrotation Yrotation 
								End Site
								{
									OFFSET 0.0 0.0 0.0
								}
							}
						}
					}
				}
			}
		}
		JOINT UpperLeg_L
		{
			OFFSET -2.19248 -6.46944 0.0
			CHANNELS 6 Xposition Yposition Zposition Zrotation Xrotation Yrotation 
			JOINT LowerLeg_L
			{
				OFFSET 39.0811 0.0 -1.23785e-05
				CHANNELS 6 Xposition Yposition Zposition Zrotation Xrotation Yrotation 
				JOINT Foot_L
				{
					OFFSET 40.9854 0.0 -1.26872e-05
					CHANNELS 6 Xposition Yposition Zposition Zrotation Xrotation Yrotation 
					JOINT Toes_L
					{
						OFFSET 11.7543 0.0 0.0
						CHANNELS 6 Xposition Yposition Zposition Zrotation Xrotation Yrotation 
						End Site
						{
							OFFSET 0.0 0.0 0.0
						}
					}
				}
			}
		}
		JOINT UpperLeg_R
		{
			OFFSET -2.19251 6.46944 0.0
			CHANNELS 6 Xposition Yposition Zposition Zrotation Xrotation Yrotation 
			JOINT LowerLeg_R
			{
				OFFSET -39.0811 -0.00228153 -0.0401928
				CHANNELS 6 Xposition Yposition Zposition Zrotation Xrotation Yrotation 
				JOINT Foot_R
				{
					OFFSET -40.9854 0.0 0.0
					CHANNELS 6 Xposition Yposition Zposition Zrotation Xrotation Yrotation 
					JOINT Toes_R
					{
						OFFSET -11.7543 0.0 0.0
						CHANNELS 6 Xposition Yposition Zposition Zrotation Xrotation Yrotation 
						End Site
						{
							OFFSET 0.0 0.0 0.0
						}
					}
				}
			}
		}
	}
}
MOTION
Frames:	4
Frame Time:	0.0333333
0.000000 0.000000 0.000000 0.000000 0.000000 -0.000000 -3.048860 83.992300 -30.203300 82.760100 1.976540 -4.437250 15.735700 0.000005 -0.000001 69.369900 79.175100 -64.581000 8.984550 -0.406207 -0.000000 12.901500 -7.339500 10.419900 16.377300 -0.000001 -0.000001 5.507370 0.092298 -1.300810 6.456720 -0.000001 -0.000000 -3.100270 7.489260 -3.815230 12.994200 -0.242716 4.980390 -88.069100 -5.700250 -71.245800 5.348090 -0.000007 -0.000001 -63.058000 29.544400 -6.047410 24.328600 0.000019 0.000005 -6.945340 -2.700250 -68.859900 22.291600 -0.000001 0.000005 1.472990 5.605270 -11.662600 12.994500 -0.242716 -4.980390 87.837800 4.045870 -61.841300 -5.348130 -0.000001 -0.000004 -52.409000 32.108000 -2.675150 -24.328900 0.000322 -0.000009 -4.351520 -2.003880 -65.312400 -22.291500 -0.000108 -0.000004 -1.633330 5.546410 -8.534030 -2.192480 -6.469440 -0.000000 -166.307000 -1.608730 5.729430 39.081100 -0.000007 -0.000012 0.104362 -0.022694 77.728200 40.985400 -0.000006 -0.000013 2.187020 -6.267120 -35.568300 11.754300 -0.000000 0.000003 -0.005236 -0.063740 -19.170400 -2.192510 6.469440 -0.000001 -166.158000 5.511410 140.071000 -39.081100 -0.002282 -0.040193 0.162520 -0.121036 52.769700 -40.985400 0.000008 0.000006 8.549280 -6.754840 -67.448700 -11.754300 -0.000006 -0.000006 -0.007837 -0.086699 -20.103400
0.000000 0.000000 0.000000 0.000000 0.000000 -0.000000 -3.226260 81.531100 -21.904500 80.789300 -0.090783 -2.742310 15.735700 0.000005 -0.000001 76.985600 78.210300 -71.609400 8.984550 -0.406207 -0.000000 15.504000 -4.874190 11.432100 16.377300 -0.000001 -0.000001 4.185030 0.931537 -1.412660 6.456720 -0.000001 -0.000000 -4.015190 6.881430 -4.542530 12.994200 -0.242716 4.980390 -88.193500 -4.907970 -69.765000 5.348090 -0.000007 -0.000001 -63.963000 33.225400 -4.682470 24.328600 0.000019 0.000005 -6.114200 -3.622130 -59.448500 22.291600 -0.000001 0.000005 0.650340 5.620900 -12.692800 12.994500 -0.242716 -4.980390 87.383600 5.260680 -63.510800 -5.348130 -0.000001 -0.000004 -47.480300 30.882000 -14.682900 -24.328900 0.000322 -0.000009 -4.073230 -1.845340 -65.663700 -22.291500 -0.000108 -0.000004 -0.325729 5.555780 -8.981630 -2.192480 -6.469440 -0.000000 -165.694000 -2.131830 -4.462420 39.081100 -0.000007 -0.000012 0.039253 0.004597 96.663900 40.985400 -0.000006 -0.000013 1.533810 -2.545580 -35.355100 11.754300 -0.000000 0.000003 -0.005375 -0.065060 -19.224200 -2.192510 6.469440 -0.000001 -164.137000 6.235450 143.915000 -39.081100 -0.002282 -0.040193 0.222729 -0.118353 61.671100 -40.985400 0.000008 0.000006 9.741300 -6.976120 -77.518300 -11.754300 -0.000006 -0.000006 -0.003469 -0.045795 -18.435700
0.000000 0.000000 0.000000 0.000000 0.000000 -0.000000 -2.958650 80.057900 -14.069900 81.871900 -1.504340 -2.745270 15.735700 0.000005 -0.000001 82.688500 78.376100 -77.719400 8.984550 -0.406207 -0.000000 15.437800 -2.585410 10.299200 16.377300 -0.000001 -0.000001 4.553160 0.470991 -1.066100 6.456720 -0.000001 -0.000000 -3.857600 4.687940 -4.701380 12.994200 -0.242716 4.980390 -87.796200 -5.769370 -69.052200 5.348090 -0.000007 -0.000001 -66.947600 35.302600 -1.249870 24.328600 0.000019 0.000005 -1.577300 -1.253910 -51.476700 22.291600 -0.000001 0.000005 -2.628380 5.619450 -12.570500 12.994500 -0.242716 -4.980390 88.224800 3.803550 -64.960000 -5.348130 -0.000001 -0.000004 -44.434900 29.469900 -24.153900 -24.328900 0.000322 -0.000009 -6.496980 -2.386750 -69.886400 -22.291500 -0.000108 -0.000004 -0.022326 5.548900 -8.654370 -2.192480 -6.469440 -0.000000 -168.345000 -3.929170 -17.907100 39.081100 -0.000007 -0.000012 -0.122452 -0.044249 109.873000 40.985400 -0.000006 -0.000013 5.585700 -1.056920 -37.615900 11.754300 -0.000000 0.000003 -0.005811 -0.069118 -19.389700 -2.192510 6.469440 -0.000001 -166.192000 7.121250 148.370000 -39.081100 -0.002282 -0.040193 0.220321 -0.096775 65.980900 -40.985400 0.000008 0.000006 9.285710 -6.458410 -85.176400 -11.754300 -0.000006 -0.000006 -0.698475 -0.847919 -18.497100
0.000000 0.000000 0.000000 0.000000 0.000000 -0.000000 -2.568560 79.935700 -5.778220 83.317300 -3.214370 -3.143210 15.735700 0.000005 -0.000001 89.641300 78.769700 -85.413800 8.984550 -0.406207 -0.000000 14.704000 0.116982 8.444950 16.377300 -0.000001 -0.000001 4.778080 -0.025275 -0.169184 6.456720 -0.000001 -0.000000 -3.165460 2.065900 -4.999190 12.994200 -0.242716 4.980390 -87.935000 -5.041270 -67.688200 5.348090 -0.000007 -0.000001 -66.789100 35.356500 3.990060 24.328600 0.000019 0.000005 1.177580 0.927911 -51.789600 22.291600 -0.000001 0.000005 -5.123800 5.616980 -12.413100 12.994500 -0.242716 -4.980390 89.039900 2.166490 -66.095600 -5.348130 -0.000001 -0.000004 -39.576300 28.036800 -32.076800 -24.328900 0.000322 -0.000009 -9.891460 -2.645330 -75.171400 -22.291500 -0.000108 -0.000004 -0.139638 5.544200 -8.436740 -2.192480 -6.469440 -0.000000 -171.976000 -6.245380 -29.746500 39.081100 -0.000007 -0.000012 -0.221732 -0.100478 114.381000 40.985400 -0.000006 -0.000013 8.958620 -4.411790 -43.059100 11.754300 -0.000000 0.000003 -0.006705 -0.077116 -19.715900 -2.192510 6.469440 -0.000001 -169.501000 7.770720 155.682000 -39.081100 -0.002282 -0.040193 0.194990 -0.091093 64.597800 -40.985400 0.000008 0.000006 8.786670 -4.547230 -89.958700 -11.754300 -0.000006 -0.000006 -1.376150 -1.624290 -19.504800
